<svg width="293" height="76" viewBox="0 0 293 76" fill="none" xmlns="http://www.w3.org/2000/svg">
<path d="M7.76707 23.192C6.51907 23.192 5.47907 23.112 4.64707 22.952C3.81507 22.776 3.13507 22.496 2.60707 22.112C2.09507 21.728 1.70307 21.216 1.43107 20.576C1.17507 19.936 0.999066 19.136 0.903066 18.176C0.807066 17.216 0.759066 16.072 0.759066 14.744C0.759066 13.416 0.807066 12.272 0.903066 11.312C0.999066 10.352 1.17507 9.552 1.43107 8.912C1.70307 8.272 2.09507 7.76 2.60707 7.376C3.13507 6.992 3.81507 6.72 4.64707 6.56C5.47907 6.384 6.51907 6.296 7.76707 6.296C8.24707 6.296 8.74307 6.312 9.25507 6.344C9.76707 6.376 10.2631 6.424 10.7431 6.488C11.2231 6.552 11.6311 6.632 11.9671 6.728V9.728C11.4711 9.68 11.0151 9.64 10.5991 9.608C10.1991 9.56 9.84707 9.536 9.54307 9.536C9.23907 9.52 8.98307 9.512 8.77507 9.512C8.03907 9.512 7.43107 9.544 6.95107 9.608C6.48707 9.656 6.11907 9.776 5.84707 9.968C5.57507 10.16 5.37507 10.448 5.24707 10.832C5.11907 11.2 5.03107 11.704 4.98307 12.344C4.95107 12.968 4.93507 13.768 4.93507 14.744C4.93507 15.704 4.95107 16.504 4.98307 17.144C5.03107 17.784 5.11907 18.296 5.24707 18.68C5.37507 19.064 5.57507 19.352 5.84707 19.544C6.11907 19.72 6.48707 19.84 6.95107 19.904C7.43107 19.952 8.03907 19.976 8.77507 19.976C9.27107 19.976 9.83107 19.96 10.4551 19.928C11.0791 19.88 11.6151 19.824 12.0631 19.76V22.832C11.7111 22.896 11.2871 22.952 10.7911 23C10.2951 23.064 9.78307 23.112 9.25507 23.144C8.74307 23.176 8.24707 23.192 7.76707 23.192ZM10.9186 23L16.1506 6.488H21.8386L27.0946 23H22.8706L21.8866 19.76H16.0066L15.0466 23H10.9186ZM16.8946 16.616H20.9746L19.0066 10.088H18.8386L16.8946 16.616ZM26.6009 23V6.488H30.7769V19.64H37.2089V23H26.6009ZM37.0681 23V6.488H48.6361V9.704H41.2441V13.088H47.5081V16.256H41.2441V19.784H48.6361V23H37.0681ZM49.2228 23V6.488H53.5188L58.8948 15.344H59.0148V6.488H63.0228V23H59.1108L53.3508 13.328H53.2308V23H49.2228ZM64.0259 23V6.488H69.8099C71.2819 6.488 72.4819 6.568 73.4099 6.728C74.3379 6.872 75.0659 7.128 75.5939 7.496C76.1219 7.848 76.4979 8.344 76.7219 8.984C76.9619 9.608 77.1139 10.392 77.1779 11.336C77.2419 12.28 77.2739 13.416 77.2739 14.744C77.2739 16.072 77.2419 17.208 77.1779 18.152C77.1139 19.096 76.9619 19.888 76.7219 20.528C76.4979 21.152 76.1219 21.648 75.5939 22.016C75.0659 22.368 74.3379 22.624 73.4099 22.784C72.4819 22.928 71.2819 23 69.8099 23H64.0259ZM68.2019 19.784H69.7139C70.3699 19.784 70.9059 19.768 71.3219 19.736C71.7379 19.688 72.0659 19.592 72.3059 19.448C72.5619 19.288 72.7379 19.032 72.8339 18.68C72.9459 18.312 73.0099 17.816 73.0259 17.192C73.0579 16.552 73.0739 15.736 73.0739 14.744C73.0739 13.752 73.0579 12.944 73.0259 12.32C73.0099 11.68 72.9459 11.184 72.8339 10.832C72.7219 10.464 72.5459 10.2 72.3059 10.04C72.0659 9.88 71.7379 9.784 71.3219 9.752C70.9059 9.72 70.3699 9.704 69.7139 9.704H68.2019V19.784ZM76.3795 23L81.6115 6.488H87.2995L92.5555 23H88.3315L87.3475 19.76H81.4675L80.5075 23H76.3795ZM82.3555 16.616H86.4355L84.4675 10.088H84.2995L82.3555 16.616ZM82.4515 4.904V4.784L84.6595 1.424H88.3795V1.544L85.1875 4.904H82.4515ZM92.0618 23V6.488H100.246C101.318 6.488 102.182 6.608 102.838 6.848C103.51 7.072 104.014 7.416 104.35 7.88C104.702 8.328 104.934 8.888 105.046 9.56C105.174 10.216 105.238 10.968 105.238 11.816C105.238 12.44 105.19 13.072 105.094 13.712C104.998 14.336 104.79 14.912 104.47 15.44C104.166 15.952 103.694 16.344 103.054 16.616L105.55 23H101.206L98.8778 16.4L99.9338 16.976C99.7898 17.056 99.6378 17.104 99.4778 17.12C99.3338 17.136 99.1498 17.144 98.9258 17.144H96.2378V23H92.0618ZM96.2378 14.048H98.6378C99.1818 14.048 99.6138 14.024 99.9338 13.976C100.27 13.912 100.518 13.8 100.678 13.64C100.838 13.48 100.942 13.256 100.99 12.968C101.038 12.68 101.062 12.312 101.062 11.864C101.062 11.4 101.038 11.024 100.99 10.736C100.958 10.448 100.862 10.232 100.702 10.088C100.558 9.928 100.318 9.816 99.9818 9.752C99.6618 9.688 99.2138 9.656 98.6378 9.656H96.2378V14.048ZM105.787 23V6.488H109.963V23H105.787ZM117.724 23.192C116.332 23.192 115.188 23.112 114.292 22.952C113.412 22.776 112.724 22.504 112.228 22.136C111.732 21.752 111.364 21.24 111.124 20.6C110.9 19.944 110.756 19.136 110.692 18.176C110.644 17.216 110.62 16.072 110.62 14.744C110.62 13.416 110.644 12.272 110.692 11.312C110.756 10.352 110.9 9.552 111.124 8.912C111.364 8.256 111.732 7.744 112.228 7.376C112.724 6.992 113.412 6.72 114.292 6.56C115.188 6.384 116.332 6.296 117.724 6.296C119.1 6.296 120.228 6.384 121.108 6.56C122.004 6.72 122.708 6.992 123.22 7.376C123.732 7.744 124.1 8.256 124.324 8.912C124.548 9.552 124.692 10.352 124.756 11.312C124.82 12.272 124.852 13.416 124.852 14.744C124.852 16.072 124.82 17.216 124.756 18.176C124.692 19.136 124.548 19.944 124.324 20.6C124.1 21.24 123.732 21.752 123.22 22.136C122.708 22.504 122.004 22.776 121.108 22.952C120.228 23.112 119.1 23.192 117.724 23.192ZM117.724 19.976C118.3 19.976 118.764 19.96 119.116 19.928C119.484 19.88 119.772 19.776 119.98 19.616C120.188 19.44 120.34 19.168 120.436 18.8C120.532 18.432 120.588 17.92 120.604 17.264C120.636 16.608 120.652 15.768 120.652 14.744C120.652 13.72 120.636 12.88 120.604 12.224C120.588 11.568 120.532 11.056 120.436 10.688C120.34 10.32 120.188 10.056 119.98 9.896C119.772 9.72 119.484 9.616 119.116 9.584C118.764 9.536 118.3 9.512 117.724 9.512C117.164 9.512 116.7 9.536 116.332 9.584C115.964 9.616 115.676 9.72 115.468 9.896C115.26 10.056 115.108 10.32 115.012 10.688C114.916 11.056 114.852 11.568 114.82 12.224C114.804 12.88 114.796 13.72 114.796 14.744C114.796 15.768 114.804 16.608 114.82 17.264C114.852 17.92 114.916 18.432 115.012 18.8C115.108 19.168 115.26 19.44 115.468 19.616C115.676 19.776 115.964 19.88 116.332 19.928C116.7 19.96 117.164 19.976 117.724 19.976ZM135.773 23.192C134.525 23.192 133.485 23.112 132.653 22.952C131.821 22.776 131.141 22.496 130.613 22.112C130.101 21.728 129.709 21.216 129.437 20.576C129.181 19.936 129.005 19.136 128.909 18.176C128.813 17.216 128.765 16.072 128.765 14.744C128.765 13.416 128.813 12.272 128.909 11.312C129.005 10.352 129.181 9.552 129.437 8.912C129.709 8.272 130.101 7.76 130.613 7.376C131.141 6.992 131.821 6.72 132.653 6.56C133.485 6.384 134.525 6.296 135.773 6.296C136.253 6.296 136.749 6.312 137.261 6.344C137.773 6.376 138.269 6.424 138.749 6.488C139.229 6.552 139.637 6.632 139.973 6.728V9.728C139.477 9.68 139.021 9.64 138.605 9.608C138.205 9.56 137.853 9.536 137.549 9.536C137.245 9.52 136.989 9.512 136.781 9.512C136.045 9.512 135.437 9.544 134.957 9.608C134.493 9.656 134.125 9.776 133.853 9.968C133.581 10.16 133.381 10.448 133.253 10.832C133.125 11.2 133.037 11.704 132.989 12.344C132.957 12.968 132.941 13.768 132.941 14.744C132.941 15.704 132.957 16.504 132.989 17.144C133.037 17.784 133.125 18.296 133.253 18.68C133.381 19.064 133.581 19.352 133.853 19.544C134.125 19.72 134.493 19.84 134.957 19.904C135.437 19.952 136.045 19.976 136.781 19.976C137.277 19.976 137.837 19.96 138.461 19.928C139.085 19.88 139.621 19.824 140.069 19.76V22.832C139.717 22.896 139.293 22.952 138.797 23C138.301 23.064 137.789 23.112 137.261 23.144C136.749 23.176 136.253 23.192 135.773 23.192ZM147.157 23.192C145.765 23.192 144.621 23.112 143.725 22.952C142.845 22.776 142.157 22.504 141.661 22.136C141.165 21.752 140.797 21.24 140.557 20.6C140.333 19.944 140.189 19.136 140.125 18.176C140.077 17.216 140.053 16.072 140.053 14.744C140.053 13.416 140.077 12.272 140.125 11.312C140.189 10.352 140.333 9.552 140.557 8.912C140.797 8.256 141.165 7.744 141.661 7.376C142.157 6.992 142.845 6.72 143.725 6.56C144.621 6.384 145.765 6.296 147.157 6.296C148.533 6.296 149.661 6.384 150.541 6.56C151.437 6.72 152.141 6.992 152.653 7.376C153.165 7.744 153.533 8.256 153.757 8.912C153.981 9.552 154.125 10.352 154.189 11.312C154.253 12.272 154.285 13.416 154.285 14.744C154.285 16.072 154.253 17.216 154.189 18.176C154.125 19.136 153.981 19.944 153.757 20.6C153.533 21.24 153.165 21.752 152.653 22.136C152.141 22.504 151.437 22.776 150.541 22.952C149.661 23.112 148.533 23.192 147.157 23.192ZM147.157 19.976C147.733 19.976 148.197 19.96 148.549 19.928C148.917 19.88 149.205 19.776 149.413 19.616C149.621 19.44 149.773 19.168 149.869 18.8C149.965 18.432 150.021 17.92 150.037 17.264C150.069 16.608 150.085 15.768 150.085 14.744C150.085 13.72 150.069 12.88 150.037 12.224C150.021 11.568 149.965 11.056 149.869 10.688C149.773 10.32 149.621 10.056 149.413 9.896C149.205 9.72 148.917 9.616 148.549 9.584C148.197 9.536 147.733 9.512 147.157 9.512C146.597 9.512 146.133 9.536 145.765 9.584C145.397 9.616 145.109 9.72 144.901 9.896C144.693 10.056 144.541 10.32 144.445 10.688C144.349 11.056 144.285 11.568 144.253 12.224C144.237 12.88 144.229 13.72 144.229 14.744C144.229 15.768 144.237 16.608 144.253 17.264C144.285 17.92 144.349 18.432 144.445 18.8C144.541 19.168 144.693 19.44 144.901 19.616C145.109 19.776 145.397 19.88 145.765 19.928C146.133 19.96 146.597 19.976 147.157 19.976ZM154.912 23V6.488H162.856C163.912 6.488 164.768 6.616 165.424 6.872C166.08 7.112 166.584 7.472 166.936 7.952C167.288 8.416 167.528 8.992 167.656 9.68C167.784 10.368 167.848 11.16 167.848 12.056C167.848 12.872 167.784 13.624 167.656 14.312C167.544 14.984 167.312 15.568 166.96 16.064C166.624 16.56 166.12 16.944 165.448 17.216C164.776 17.488 163.888 17.624 162.784 17.624H159.088V23H154.912ZM159.088 14.456H161.176C161.752 14.456 162.2 14.424 162.52 14.36C162.856 14.296 163.104 14.184 163.264 14.024C163.424 13.848 163.528 13.608 163.576 13.304C163.624 12.984 163.648 12.568 163.648 12.056C163.648 11.544 163.624 11.128 163.576 10.808C163.544 10.488 163.448 10.248 163.288 10.088C163.128 9.912 162.888 9.8 162.568 9.752C162.248 9.688 161.808 9.656 161.248 9.656H159.088V14.456ZM165.648 23L170.88 6.488H176.568L181.824 23H177.6L176.616 19.76H170.736L169.776 23H165.648ZM171.624 16.616H175.704L173.736 10.088H173.568L171.624 16.616ZM185.001 23V6.488H190.785C192.257 6.488 193.457 6.568 194.385 6.728C195.313 6.872 196.041 7.128 196.569 7.496C197.097 7.848 197.473 8.344 197.697 8.984C197.937 9.608 198.089 10.392 198.153 11.336C198.217 12.28 198.249 13.416 198.249 14.744C198.249 16.072 198.217 17.208 198.153 18.152C198.089 19.096 197.937 19.888 197.697 20.528C197.473 21.152 197.097 21.648 196.569 22.016C196.041 22.368 195.313 22.624 194.385 22.784C193.457 22.928 192.257 23 190.785 23H185.001ZM189.177 19.784H190.689C191.345 19.784 191.881 19.768 192.297 19.736C192.713 19.688 193.041 19.592 193.281 19.448C193.537 19.288 193.713 19.032 193.809 18.68C193.921 18.312 193.985 17.816 194.001 17.192C194.033 16.552 194.049 15.736 194.049 14.744C194.049 13.752 194.033 12.944 194.001 12.32C193.985 11.68 193.921 11.184 193.809 10.832C193.697 10.464 193.521 10.2 193.281 10.04C193.041 9.88 192.713 9.784 192.297 9.752C191.881 9.72 191.345 9.704 190.689 9.704H189.177V19.784ZM205.587 23.192C204.195 23.192 203.051 23.112 202.155 22.952C201.275 22.776 200.587 22.504 200.091 22.136C199.595 21.752 199.227 21.24 198.987 20.6C198.763 19.944 198.619 19.136 198.555 18.176C198.507 17.216 198.483 16.072 198.483 14.744C198.483 13.416 198.507 12.272 198.555 11.312C198.619 10.352 198.763 9.552 198.987 8.912C199.227 8.256 199.595 7.744 200.091 7.376C200.587 6.992 201.275 6.72 202.155 6.56C203.051 6.384 204.195 6.296 205.587 6.296C206.963 6.296 208.091 6.384 208.971 6.56C209.867 6.72 210.571 6.992 211.083 7.376C211.595 7.744 211.963 8.256 212.187 8.912C212.411 9.552 212.555 10.352 212.619 11.312C212.683 12.272 212.715 13.416 212.715 14.744C212.715 16.072 212.683 17.216 212.619 18.176C212.555 19.136 212.411 19.944 212.187 20.6C211.963 21.24 211.595 21.752 211.083 22.136C210.571 22.504 209.867 22.776 208.971 22.952C208.091 23.112 206.963 23.192 205.587 23.192ZM205.587 19.976C206.163 19.976 206.627 19.96 206.979 19.928C207.347 19.88 207.635 19.776 207.843 19.616C208.051 19.44 208.203 19.168 208.299 18.8C208.395 18.432 208.451 17.92 208.467 17.264C208.499 16.608 208.515 15.768 208.515 14.744C208.515 13.72 208.499 12.88 208.467 12.224C208.451 11.568 208.395 11.056 208.299 10.688C208.203 10.32 208.051 10.056 207.843 9.896C207.635 9.72 207.347 9.616 206.979 9.584C206.627 9.536 206.163 9.512 205.587 9.512C205.027 9.512 204.563 9.536 204.195 9.584C203.827 9.616 203.539 9.72 203.331 9.896C203.123 10.056 202.971 10.32 202.875 10.688C202.779 11.056 202.715 11.568 202.683 12.224C202.667 12.88 202.659 13.72 202.659 14.744C202.659 15.768 202.667 16.608 202.683 17.264C202.715 17.92 202.779 18.432 202.875 18.8C202.971 19.168 203.123 19.44 203.331 19.616C203.539 19.776 203.827 19.88 204.195 19.928C204.563 19.96 205.027 19.976 205.587 19.976ZM217.012 23V6.488H222.748L226.036 16.28H226.204L229.492 6.488H235.204V23H231.196V12.272H231.028L227.452 23H224.644L221.092 12.272H220.9V23H217.012ZM242.797 23.192C241.565 23.192 240.541 23.12 239.725 22.976C238.909 22.816 238.261 22.568 237.781 22.232C237.301 21.896 236.941 21.44 236.701 20.864C236.461 20.272 236.301 19.544 236.221 18.68C236.157 17.8 236.125 16.76 236.125 15.56V6.488H240.301V16.448C240.301 17.216 240.317 17.84 240.349 18.32C240.397 18.784 240.493 19.136 240.637 19.376C240.797 19.616 241.045 19.776 241.381 19.856C241.733 19.92 242.205 19.952 242.797 19.952C243.389 19.952 243.853 19.92 244.189 19.856C244.525 19.776 244.765 19.616 244.909 19.376C245.069 19.136 245.165 18.784 245.197 18.32C245.245 17.84 245.269 17.216 245.269 16.448V6.488H249.445V15.56C249.445 16.76 249.405 17.8 249.325 18.68C249.261 19.544 249.109 20.272 248.869 20.864C248.645 21.44 248.293 21.896 247.813 22.232C247.333 22.568 246.685 22.816 245.869 22.976C245.053 23.12 244.029 23.192 242.797 23.192ZM250.392 23V6.488H254.688L260.064 15.344H260.184V6.488H264.192V23H260.28L254.52 13.328H254.4V23H250.392ZM265.195 23V6.488H270.979C272.451 6.488 273.651 6.568 274.579 6.728C275.507 6.872 276.235 7.128 276.763 7.496C277.291 7.848 277.667 8.344 277.891 8.984C278.131 9.608 278.283 10.392 278.347 11.336C278.411 12.28 278.443 13.416 278.443 14.744C278.443 16.072 278.411 17.208 278.347 18.152C278.283 19.096 278.131 19.888 277.891 20.528C277.667 21.152 277.291 21.648 276.763 22.016C276.235 22.368 275.507 22.624 274.579 22.784C273.651 22.928 272.451 23 270.979 23H265.195ZM269.371 19.784H270.883C271.539 19.784 272.075 19.768 272.491 19.736C272.907 19.688 273.235 19.592 273.475 19.448C273.731 19.288 273.907 19.032 274.003 18.68C274.115 18.312 274.179 17.816 274.195 17.192C274.227 16.552 274.243 15.736 274.243 14.744C274.243 13.752 274.227 12.944 274.195 12.32C274.179 11.68 274.115 11.184 274.003 10.832C273.891 10.464 273.715 10.2 273.475 10.04C273.235 9.88 272.907 9.784 272.491 9.752C272.075 9.72 271.539 9.704 270.883 9.704H269.371V19.784ZM285.78 23.192C284.388 23.192 283.244 23.112 282.348 22.952C281.468 22.776 280.78 22.504 280.284 22.136C279.788 21.752 279.42 21.24 279.18 20.6C278.956 19.944 278.812 19.136 278.748 18.176C278.7 17.216 278.676 16.072 278.676 14.744C278.676 13.416 278.7 12.272 278.748 11.312C278.812 10.352 278.956 9.552 279.18 8.912C279.42 8.256 279.788 7.744 280.284 7.376C280.78 6.992 281.468 6.72 282.348 6.56C283.244 6.384 284.388 6.296 285.78 6.296C287.156 6.296 288.284 6.384 289.164 6.56C290.06 6.72 290.764 6.992 291.276 7.376C291.788 7.744 292.156 8.256 292.38 8.912C292.604 9.552 292.748 10.352 292.812 11.312C292.876 12.272 292.908 13.416 292.908 14.744C292.908 16.072 292.876 17.216 292.812 18.176C292.748 19.136 292.604 19.944 292.38 20.6C292.156 21.24 291.788 21.752 291.276 22.136C290.764 22.504 290.06 22.776 289.164 22.952C288.284 23.112 287.156 23.192 285.78 23.192ZM285.78 19.976C286.356 19.976 286.82 19.96 287.172 19.928C287.54 19.88 287.828 19.776 288.036 19.616C288.244 19.44 288.396 19.168 288.492 18.8C288.588 18.432 288.644 17.92 288.66 17.264C288.692 16.608 288.708 15.768 288.708 14.744C288.708 13.72 288.692 12.88 288.66 12.224C288.644 11.568 288.588 11.056 288.492 10.688C288.396 10.32 288.244 10.056 288.036 9.896C287.828 9.72 287.54 9.616 287.172 9.584C286.82 9.536 286.356 9.512 285.78 9.512C285.22 9.512 284.756 9.536 284.388 9.584C284.02 9.616 283.732 9.72 283.524 9.896C283.316 10.056 283.164 10.32 283.068 10.688C282.972 11.056 282.908 11.568 282.876 12.224C282.86 12.88 282.852 13.72 282.852 14.744C282.852 15.768 282.86 16.608 282.876 17.264C282.908 17.92 282.972 18.432 283.068 18.8C283.164 19.168 283.316 19.44 283.524 19.616C283.732 19.776 284.02 19.88 284.388 19.928C284.756 19.96 285.22 19.976 285.78 19.976Z" fill="#F7DD43"/>
<path d="M28.4131 60.4521V45.6719H32.793V60.4521C32.793 61.8779 32.4805 63.1035 31.8555 64.1289C31.2305 65.1445 30.376 65.9258 29.292 66.4727C28.2178 67.0195 27.0068 67.293 25.6592 67.293C24.2627 67.293 23.0273 67.0586 21.9531 66.5898C20.8789 66.1211 20.0342 65.4033 19.4189 64.4365C18.8037 63.46 18.4961 62.2246 18.4961 60.7305H22.9053C22.9053 61.5117 23.0127 62.1318 23.2275 62.5908C23.4521 63.0498 23.7695 63.377 24.1797 63.5723C24.5898 63.7676 25.083 63.8652 25.6592 63.8652C26.2158 63.8652 26.6992 63.7334 27.1094 63.4697C27.5195 63.2061 27.8369 62.8203 28.0615 62.3125C28.2959 61.8047 28.4131 61.1846 28.4131 60.4521ZM54.0625 55.8379V56.8486C54.0625 58.4697 53.8428 59.9248 53.4033 61.2139C52.9639 62.5029 52.3438 63.6016 51.543 64.5098C50.7422 65.4082 49.7852 66.0967 48.6719 66.5752C47.5684 67.0537 46.3428 67.293 44.9951 67.293C43.6572 67.293 42.4316 67.0537 41.3184 66.5752C40.2148 66.0967 39.2578 65.4082 38.4473 64.5098C37.6367 63.6016 37.0068 62.5029 36.5576 61.2139C36.1182 59.9248 35.8984 58.4697 35.8984 56.8486V55.8379C35.8984 54.207 36.1182 52.752 36.5576 51.4727C36.9971 50.1836 37.6172 49.085 38.418 48.1768C39.2285 47.2686 40.1855 46.5752 41.2891 46.0967C42.4023 45.6182 43.6279 45.3789 44.9658 45.3789C46.3135 45.3789 47.5391 45.6182 48.6426 46.0967C49.7559 46.5752 50.7129 47.2686 51.5137 48.1768C52.3242 49.085 52.9492 50.1836 53.3887 51.4727C53.8379 52.752 54.0625 54.207 54.0625 55.8379ZM49.624 56.8486V55.8086C49.624 54.6758 49.5215 53.6797 49.3164 52.8203C49.1113 51.9609 48.8086 51.2383 48.4082 50.6523C48.0078 50.0664 47.5195 49.627 46.9434 49.334C46.3672 49.0312 45.708 48.8799 44.9658 48.8799C44.2236 48.8799 43.5645 49.0312 42.9883 49.334C42.4219 49.627 41.9385 50.0664 41.5381 50.6523C41.1475 51.2383 40.8496 51.9609 40.6445 52.8203C40.4395 53.6797 40.3369 54.6758 40.3369 55.8086V56.8486C40.3369 57.9717 40.4395 58.9678 40.6445 59.8369C40.8496 60.6963 41.1523 61.4238 41.5527 62.0195C41.9531 62.6055 42.4414 63.0498 43.0176 63.3525C43.5938 63.6553 44.2529 63.8066 44.9951 63.8066C45.7373 63.8066 46.3965 63.6553 46.9727 63.3525C47.5488 63.0498 48.0322 62.6055 48.4229 62.0195C48.8135 61.4238 49.1113 60.6963 49.3164 59.8369C49.5215 58.9678 49.624 57.9717 49.624 56.8486ZM74.1309 55.8525V64.3047C73.7988 64.7051 73.2861 65.1396 72.5928 65.6084C71.8994 66.0674 71.0059 66.4629 69.9121 66.7949C68.8184 67.127 67.4951 67.293 65.9424 67.293C64.5654 67.293 63.3105 67.0684 62.1777 66.6191C61.0449 66.1602 60.0684 65.4912 59.248 64.6123C58.4375 63.7334 57.8125 62.6592 57.373 61.3896C56.9336 60.1104 56.7139 58.6504 56.7139 57.0098V55.6768C56.7139 54.0361 56.9238 52.5762 57.3438 51.2969C57.7734 50.0176 58.3838 48.9385 59.1748 48.0596C59.9658 47.1807 60.9082 46.5117 62.002 46.0527C63.0957 45.5938 64.3115 45.3643 65.6494 45.3643C67.5049 45.3643 69.0283 45.667 70.2197 46.2725C71.4111 46.8682 72.3193 47.6982 72.9443 48.7627C73.5791 49.8174 73.9697 51.0283 74.1162 52.3955H69.8535C69.7461 51.6729 69.541 51.043 69.2383 50.5059C68.9355 49.9688 68.501 49.5488 67.9346 49.2461C67.3779 48.9434 66.6553 48.792 65.7666 48.792C65.0342 48.792 64.3799 48.9434 63.8037 49.2461C63.2373 49.5391 62.7588 49.9736 62.3682 50.5498C61.9775 51.126 61.6797 51.8389 61.4746 52.6885C61.2695 53.5381 61.167 54.5244 61.167 55.6475V57.0098C61.167 58.123 61.2744 59.1094 61.4893 59.9688C61.7041 60.8184 62.0215 61.5361 62.4414 62.1221C62.8711 62.6982 63.3984 63.1328 64.0234 63.4258C64.6484 63.7188 65.376 63.8652 66.2061 63.8652C66.8994 63.8652 67.4756 63.8066 67.9346 63.6895C68.4033 63.5723 68.7793 63.4307 69.0625 63.2646C69.3555 63.0889 69.5801 62.9229 69.7363 62.7666V58.9873H65.7227V55.8525H74.1309ZM95.1953 55.8379V56.8486C95.1953 58.4697 94.9756 59.9248 94.5361 61.2139C94.0967 62.5029 93.4766 63.6016 92.6758 64.5098C91.875 65.4082 90.918 66.0967 89.8047 66.5752C88.7012 67.0537 87.4756 67.293 86.1279 67.293C84.79 67.293 83.5645 67.0537 82.4512 66.5752C81.3477 66.0967 80.3906 65.4082 79.5801 64.5098C78.7695 63.6016 78.1396 62.5029 77.6904 61.2139C77.251 59.9248 77.0312 58.4697 77.0312 56.8486V55.8379C77.0312 54.207 77.251 52.752 77.6904 51.4727C78.1299 50.1836 78.75 49.085 79.5508 48.1768C80.3613 47.2686 81.3184 46.5752 82.4219 46.0967C83.5352 45.6182 84.7607 45.3789 86.0986 45.3789C87.4463 45.3789 88.6719 45.6182 89.7754 46.0967C90.8887 46.5752 91.8457 47.2686 92.6465 48.1768C93.457 49.085 94.082 50.1836 94.5215 51.4727C94.9707 52.752 95.1953 54.207 95.1953 55.8379ZM90.7568 56.8486V55.8086C90.7568 54.6758 90.6543 53.6797 90.4492 52.8203C90.2441 51.9609 89.9414 51.2383 89.541 50.6523C89.1406 50.0664 88.6523 49.627 88.0762 49.334C87.5 49.0312 86.8408 48.8799 86.0986 48.8799C85.3564 48.8799 84.6973 49.0312 84.1211 49.334C83.5547 49.627 83.0713 50.0664 82.6709 50.6523C82.2803 51.2383 81.9824 51.9609 81.7773 52.8203C81.5723 53.6797 81.4697 54.6758 81.4697 55.8086V56.8486C81.4697 57.9717 81.5723 58.9678 81.7773 59.8369C81.9824 60.6963 82.2852 61.4238 82.6855 62.0195C83.0859 62.6055 83.5742 63.0498 84.1504 63.3525C84.7266 63.6553 85.3857 63.8066 86.1279 63.8066C86.8701 63.8066 87.5293 63.6553 88.1055 63.3525C88.6816 63.0498 89.165 62.6055 89.5557 62.0195C89.9463 61.4238 90.2441 60.6963 90.4492 59.8369C90.6543 58.9678 90.7568 57.9717 90.7568 56.8486ZM109.463 61.4189C109.463 61.0381 109.404 60.6963 109.287 60.3936C109.18 60.0811 108.975 59.7979 108.672 59.5439C108.369 59.2803 107.944 59.0215 107.397 58.7676C106.851 58.5137 106.143 58.25 105.273 57.9766C104.307 57.6641 103.389 57.3125 102.52 56.9219C101.66 56.5312 100.898 56.0771 100.234 55.5596C99.5801 55.0322 99.0625 54.4219 98.6816 53.7285C98.3105 53.0352 98.125 52.2295 98.125 51.3115C98.125 50.4229 98.3203 49.6172 98.7109 48.8945C99.1016 48.1621 99.6484 47.5371 100.352 47.0195C101.055 46.4922 101.885 46.0869 102.842 45.8037C103.809 45.5205 104.868 45.3789 106.021 45.3789C107.593 45.3789 108.965 45.6621 110.137 46.2285C111.309 46.7949 112.217 47.5713 112.861 48.5576C113.516 49.5439 113.843 50.6719 113.843 51.9414H109.478C109.478 51.3164 109.346 50.7695 109.082 50.3008C108.828 49.8223 108.438 49.4463 107.91 49.1729C107.393 48.8994 106.738 48.7627 105.947 48.7627C105.186 48.7627 104.551 48.8799 104.043 49.1143C103.535 49.3389 103.154 49.6465 102.9 50.0371C102.646 50.418 102.52 50.8477 102.52 51.3262C102.52 51.6875 102.607 52.0146 102.783 52.3076C102.969 52.6006 103.242 52.874 103.604 53.1279C103.965 53.3818 104.409 53.6211 104.937 53.8457C105.464 54.0703 106.074 54.29 106.768 54.5049C107.93 54.8564 108.95 55.252 109.829 55.6914C110.718 56.1309 111.46 56.624 112.056 57.1709C112.651 57.7178 113.101 58.3379 113.403 59.0312C113.706 59.7246 113.857 60.5107 113.857 61.3896C113.857 62.3174 113.677 63.1475 113.315 63.8799C112.954 64.6123 112.432 65.2324 111.748 65.7402C111.064 66.248 110.249 66.6338 109.302 66.8975C108.354 67.1611 107.295 67.293 106.123 67.293C105.068 67.293 104.028 67.1562 103.003 66.8828C101.978 66.5996 101.045 66.1748 100.205 65.6084C99.375 65.042 98.7109 64.3193 98.2129 63.4404C97.7148 62.5615 97.4658 61.5215 97.4658 60.3203H101.875C101.875 60.9844 101.978 61.5459 102.183 62.0049C102.388 62.4639 102.676 62.835 103.047 63.1182C103.428 63.4014 103.877 63.6064 104.395 63.7334C104.922 63.8604 105.498 63.9238 106.123 63.9238C106.885 63.9238 107.51 63.8164 107.998 63.6016C108.496 63.3867 108.862 63.0889 109.097 62.708C109.341 62.3271 109.463 61.8975 109.463 61.4189ZM130.864 67H126.221L126.25 63.5723H130.864C132.017 63.5723 132.988 63.3135 133.779 62.7959C134.57 62.2686 135.166 61.502 135.566 60.4961C135.977 59.4902 136.182 58.2744 136.182 56.8486V55.8086C136.182 54.7148 136.064 53.7529 135.83 52.9229C135.605 52.0928 135.269 51.3945 134.819 50.8281C134.37 50.2617 133.818 49.8369 133.164 49.5537C132.51 49.2607 131.758 49.1143 130.908 49.1143H126.133V45.6719H130.908C132.334 45.6719 133.638 45.916 134.819 46.4043C136.011 46.8828 137.041 47.5713 137.91 48.4697C138.779 49.3682 139.448 50.4424 139.917 51.6924C140.396 52.9326 140.635 54.3145 140.635 55.8379V56.8486C140.635 58.3623 140.396 59.7441 139.917 60.9941C139.448 62.2441 138.779 63.3184 137.91 64.2168C137.051 65.1055 136.021 65.7939 134.819 66.2822C133.628 66.7607 132.31 67 130.864 67ZM128.711 45.6719V67H124.316V45.6719H128.711ZM161.348 55.8379V56.8486C161.348 58.4697 161.128 59.9248 160.688 61.2139C160.249 62.5029 159.629 63.6016 158.828 64.5098C158.027 65.4082 157.07 66.0967 155.957 66.5752C154.854 67.0537 153.628 67.293 152.28 67.293C150.942 67.293 149.717 67.0537 148.604 66.5752C147.5 66.0967 146.543 65.4082 145.732 64.5098C144.922 63.6016 144.292 62.5029 143.843 61.2139C143.403 59.9248 143.184 58.4697 143.184 56.8486V55.8379C143.184 54.207 143.403 52.752 143.843 51.4727C144.282 50.1836 144.902 49.085 145.703 48.1768C146.514 47.2686 147.471 46.5752 148.574 46.0967C149.688 45.6182 150.913 45.3789 152.251 45.3789C153.599 45.3789 154.824 45.6182 155.928 46.0967C157.041 46.5752 157.998 47.2686 158.799 48.1768C159.609 49.085 160.234 50.1836 160.674 51.4727C161.123 52.752 161.348 54.207 161.348 55.8379ZM156.909 56.8486V55.8086C156.909 54.6758 156.807 53.6797 156.602 52.8203C156.396 51.9609 156.094 51.2383 155.693 50.6523C155.293 50.0664 154.805 49.627 154.229 49.334C153.652 49.0312 152.993 48.8799 152.251 48.8799C151.509 48.8799 150.85 49.0312 150.273 49.334C149.707 49.627 149.224 50.0664 148.823 50.6523C148.433 51.2383 148.135 51.9609 147.93 52.8203C147.725 53.6797 147.622 54.6758 147.622 55.8086V56.8486C147.622 57.9717 147.725 58.9678 147.93 59.8369C148.135 60.6963 148.438 61.4238 148.838 62.0195C149.238 62.6055 149.727 63.0498 150.303 63.3525C150.879 63.6553 151.538 63.8066 152.28 63.8066C153.022 63.8066 153.682 63.6553 154.258 63.3525C154.834 63.0498 155.317 62.6055 155.708 62.0195C156.099 61.4238 156.396 60.6963 156.602 59.8369C156.807 58.9678 156.909 57.9717 156.909 56.8486ZM180.332 57.6396H174.854L174.824 54.6221H179.424C180.234 54.6221 180.898 54.5195 181.416 54.3145C181.934 54.0996 182.319 53.792 182.573 53.3916C182.837 52.9814 182.969 52.4834 182.969 51.8975C182.969 51.2334 182.842 50.6963 182.588 50.2861C182.344 49.876 181.958 49.5781 181.431 49.3926C180.913 49.207 180.244 49.1143 179.424 49.1143H176.377V67H171.982V45.6719H179.424C180.664 45.6719 181.772 45.7891 182.749 46.0234C183.735 46.2578 184.57 46.6143 185.254 47.0928C185.938 47.5713 186.46 48.1768 186.821 48.9092C187.183 49.6318 187.363 50.4912 187.363 51.4873C187.363 52.3662 187.163 53.1768 186.763 53.9189C186.372 54.6611 185.752 55.2666 184.902 55.7354C184.062 56.2041 182.964 56.4629 181.606 56.5117L180.332 57.6396ZM180.142 67H173.652L175.366 63.5723H180.142C180.913 63.5723 181.543 63.4502 182.031 63.2061C182.52 62.9521 182.881 62.6104 183.115 62.1807C183.35 61.751 183.467 61.2578 183.467 60.7012C183.467 60.0762 183.359 59.5342 183.145 59.0752C182.939 58.6162 182.607 58.2646 182.148 58.0205C181.689 57.7666 181.084 57.6396 180.332 57.6396H176.099L176.128 54.6221H181.401L182.412 55.8086C183.711 55.7891 184.756 56.0186 185.547 56.4971C186.348 56.9658 186.929 57.5762 187.29 58.3281C187.661 59.0801 187.847 59.8857 187.847 60.7451C187.847 62.1123 187.549 63.2646 186.953 64.2021C186.357 65.1299 185.483 65.8281 184.331 66.2969C183.188 66.7656 181.792 67 180.142 67ZM191.143 45.6719H199.097C200.728 45.6719 202.129 45.916 203.301 46.4043C204.482 46.8926 205.391 47.6152 206.025 48.5723C206.66 49.5293 206.978 50.7061 206.978 52.1025C206.978 53.2451 206.782 54.2266 206.392 55.0469C206.011 55.8574 205.469 56.5361 204.766 57.083C204.072 57.6201 203.257 58.0498 202.319 58.3721L200.928 59.1045H194.014L193.984 55.6768H199.126C199.897 55.6768 200.537 55.54 201.045 55.2666C201.553 54.9932 201.934 54.6123 202.188 54.124C202.451 53.6357 202.583 53.0693 202.583 52.4248C202.583 51.7412 202.456 51.1504 202.202 50.6523C201.948 50.1543 201.562 49.7734 201.045 49.5098C200.527 49.2461 199.878 49.1143 199.097 49.1143H195.537V67H191.143V45.6719ZM203.066 67L198.203 57.4932L202.847 57.4639L207.769 66.7949V67H203.066ZM219.033 49.3193L213.232 67H208.56L216.484 45.6719H219.458L219.033 49.3193ZM223.853 67L218.037 49.3193L217.568 45.6719H220.571L228.54 67H223.853ZM223.589 59.0605V62.5029H212.324V59.0605H223.589ZM241.621 61.4189C241.621 61.0381 241.562 60.6963 241.445 60.3936C241.338 60.0811 241.133 59.7979 240.83 59.5439C240.527 59.2803 240.103 59.0215 239.556 58.7676C239.009 58.5137 238.301 58.25 237.432 57.9766C236.465 57.6641 235.547 57.3125 234.678 56.9219C233.818 56.5312 233.057 56.0771 232.393 55.5596C231.738 55.0322 231.221 54.4219 230.84 53.7285C230.469 53.0352 230.283 52.2295 230.283 51.3115C230.283 50.4229 230.479 49.6172 230.869 48.8945C231.26 48.1621 231.807 47.5371 232.51 47.0195C233.213 46.4922 234.043 46.0869 235 45.8037C235.967 45.5205 237.026 45.3789 238.179 45.3789C239.751 45.3789 241.123 45.6621 242.295 46.2285C243.467 46.7949 244.375 47.5713 245.02 48.5576C245.674 49.5439 246.001 50.6719 246.001 51.9414H241.636C241.636 51.3164 241.504 50.7695 241.24 50.3008C240.986 49.8223 240.596 49.4463 240.068 49.1729C239.551 48.8994 238.896 48.7627 238.105 48.7627C237.344 48.7627 236.709 48.8799 236.201 49.1143C235.693 49.3389 235.312 49.6465 235.059 50.0371C234.805 50.418 234.678 50.8477 234.678 51.3262C234.678 51.6875 234.766 52.0146 234.941 52.3076C235.127 52.6006 235.4 52.874 235.762 53.1279C236.123 53.3818 236.567 53.6211 237.095 53.8457C237.622 54.0703 238.232 54.29 238.926 54.5049C240.088 54.8564 241.108 55.252 241.987 55.6914C242.876 56.1309 243.618 56.624 244.214 57.1709C244.81 57.7178 245.259 58.3379 245.562 59.0312C245.864 59.7246 246.016 60.5107 246.016 61.3896C246.016 62.3174 245.835 63.1475 245.474 63.8799C245.112 64.6123 244.59 65.2324 243.906 65.7402C243.223 66.248 242.407 66.6338 241.46 66.8975C240.513 67.1611 239.453 67.293 238.281 67.293C237.227 67.293 236.187 67.1562 235.161 66.8828C234.136 66.5996 233.203 66.1748 232.363 65.6084C231.533 65.042 230.869 64.3193 230.371 63.4404C229.873 62.5615 229.624 61.5215 229.624 60.3203H234.033C234.033 60.9844 234.136 61.5459 234.341 62.0049C234.546 62.4639 234.834 62.835 235.205 63.1182C235.586 63.4014 236.035 63.6064 236.553 63.7334C237.08 63.8604 237.656 63.9238 238.281 63.9238C239.043 63.9238 239.668 63.8164 240.156 63.6016C240.654 63.3867 241.021 63.0889 241.255 62.708C241.499 62.3271 241.621 61.8975 241.621 61.4189ZM253.677 45.6719V67H249.297V45.6719H253.677ZM271.504 63.5723V67H260.767V63.5723H271.504ZM262.188 45.6719V67H257.793V45.6719H262.188Z" fill="url(#paint0_linear_122_239)"/>
<defs>
<linearGradient id="paint0_linear_122_239" x1="145" y1="38" x2="145" y2="76" gradientUnits="userSpaceOnUse">
<stop stop-color="white"/>
<stop offset="1" stop-color="#D9D9D9" stop-opacity="0.8"/>
</linearGradient>
</defs>
</svg>
